<!DOCTYPE svg PUBLIC "-//W3C//DTD SVG 1.1//EN" "http://www.w3.org/Graphics/SVG/1.1/DTD/svg11.dtd">
<!-- Uploaded to: SVG Repo, www.svgrepo.com, Transformed by: SVG Repo Mixer Tools -->
<svg fill="#ffffff" height="800px" width="800px" version="1.1" id="Capa_1" xmlns="http://www.w3.org/2000/svg" xmlns:xlink="http://www.w3.org/1999/xlink" viewBox="0 0 344.295 344.295" xml:space="preserve" stroke="#ffffff">
<g id="SVGRepo_bgCarrier" stroke-width="0"/>
<g id="SVGRepo_tracerCarrier" stroke-linecap="round" stroke-linejoin="round"/>
<g id="SVGRepo_iconCarrier"> <g> <path d="M180.871,191.475v97.567H45.168V46.041H152.61c3.66-4.243,7.837-8.241,12.519-11.936 c12.883-10.167,28.574-17.236,45.635-20.77c-0.801-4.548-4.76-8.006-9.537-8.006H65.686V4.846C65.686,2.17,63.516,0,60.838,0 H41.129c-2.676,0-4.846,2.17-4.846,4.846V5.33H24.811c-5.352,0-9.691,4.34-9.691,9.693v319.578c0,5.353,4.34,9.693,9.691,9.693 h176.416c5.354,0,9.693-4.34,9.693-9.693V184.425C199.221,188.536,188.98,190.547,180.871,191.475z M81.598,19.305h62.844v10.986 H81.598V19.305z M113.02,326.361c-5.889,0-10.662-4.773-10.662-10.662c0-5.889,4.773-10.662,10.662-10.662 c5.889,0,10.662,4.773,10.662,10.662C123.682,321.588,118.908,326.361,113.02,326.361z"/> <path d="M239.059,20.127c-49.691,0-90.117,32.293-90.117,71.987c0,22.331,13.082,43.485,35.143,57.064 c-0.873,3.888-4.131,12.707-16.268,22.95c-1.246,1.052-1.754,2.74-1.295,4.306c0.459,1.564,1.799,2.711,3.416,2.923 c0.225,0.029,2.3,0.288,5.968,0.288c10.424,0,31.657-2.054,57.574-15.684c1.873,0.091,3.744,0.137,5.579,0.137 c49.691,0,90.117-32.292,90.117-71.984C329.176,52.42,288.749,20.127,239.059,20.127z M198.408,113.934 c-5.805,0-11.857-2.491-15.799-6.503l-2.561-2.604l6.031-6.031l2.604,2.751c2.217,2.343,6.125,3.918,9.725,3.918 c3.816,0,8.273-1.2,8.273-4.584c0.029-3.302-1.918-4.387-8.625-6.418c-6.082-1.843-14.41-4.365-14.41-14.193 c0-7.313,6.418-12.227,15.975-12.227c4.307,0,9,1.303,12.248,3.401l3.049,1.968l-4.453,7.129l-3.141-2.024 c-1.859-1.198-4.955-2.003-7.703-2.003c-3.736,0-7.506,1.161-7.506,3.756c0,3.051,2.014,4.148,8.477,6.102 c6.178,1.867,14.639,4.425,14.561,14.539C215.152,108.688,208.424,113.934,198.408,113.934z M262.527,113.934h-8.463l-0.039-25.849 l-11,21.605h-4.623l-11.035-21.605v25.849h-8.471V68.042h7.871L240.756,95.5l13.895-27.458h7.877V113.934z M281.324,113.934 c-5.803,0-11.855-2.491-15.799-6.503l-2.561-2.604l6.033-6.031l2.602,2.751c2.219,2.343,6.127,3.918,9.725,3.918 c3.818,0,8.275-1.2,8.275-4.584c0.027-3.302-1.918-4.387-8.625-6.418c-6.082-1.843-14.41-4.365-14.41-14.193 c0-7.313,6.418-12.227,15.973-12.227c4.309,0,9.002,1.303,12.25,3.401l3.049,1.968l-4.453,7.129l-3.141-2.024 c-1.859-1.198-4.955-2.003-7.705-2.003c-3.734,0-7.504,1.161-7.504,3.756c0,3.051,2.014,4.148,8.476,6.102 c6.178,1.867,14.639,4.425,14.561,14.539C298.07,108.688,291.342,113.934,281.324,113.934z"/> </g> </g>
</svg>